<svg xmlns="http://www.w3.org/2000/svg" fill="none" viewBox="0 0 128 128">
    <rect width="128" height="128" fill="#50e3c2" rx="10.907" ry="10.907"/><path fill="#fff" d="M105.77 42.795c-4.458-5.784-10.798-8.676-19.018-8.676s-14.57 2.878-19.045 8.633c-4.448 5.784-6.672 12.887-6.672 21.308-.008 1.496.05 2.942.172 4.338h-3.942V34.969H37.013L15.83 70.221v13.487h23.867v9.357h17.567v-9.357h6.763V79.6a25.928 25.928 0 0 0 8.41 10.232c3.958 2.892 8.72 4.324 14.288 4.296 5.567 0 10.33-1.446 14.287-4.338 7.602-5.5 11.403-14.077 11.403-25.73.028-8.393-2.187-15.48-6.646-21.265Z"/></svg>
    <style>
        path { fill: #000; }
        @media (prefers-color-scheme: dark) {
            path { fill: #FFF; }
        }
    </style>
</svg>
